HIERARCHY
ROOT hip
{
  OFFSET 9.00362 76.1873 -275.745
  CHANNELS 6 Xposition Yposition Zposition Zrotation Xrotation Yrotation
  JOINT abdomen
  {
    OFFSET 0 20.6881 -0.73152
    CHANNELS 3 Zrotation Xrotation Yrotation
    JOINT chest
    {
      OFFSET 0 11.7043 -0.48768
      CHANNELS 3 Zrotation Xrotation Yrotation
      JOINT neck
      {
        OFFSET 0 22.1894 -2.19456
        CHANNELS 3 Zrotation Xrotation Yrotation
        JOINT head
        {
          OFFSET -0.24384 7.07133 1.2192
          CHANNELS 3 Zrotation Xrotation Yrotation
          JOINT leftEye
          {
            OFFSET 4.14528 8.04674 8.04672
            CHANNELS 3 Zrotation Xrotation Yrotation
            End Site
            {
              OFFSET 1 0 0
            }
          }
          JOINT rightEye
          {
            OFFSET -3.6576 8.04674 8.04672
            CHANNELS 3 Zrotation Xrotation Yrotation
            End Site
            {
              OFFSET 1 0 0
            }
          }
        }
      }
      JOINT rCollar
      {
        OFFSET -2.68224 19.2634 -4.8768
        CHANNELS 3 Zrotation Xrotation Yrotation
        JOINT rShldr
        {
          OFFSET -8.77824 -1.95073 1.46304
          CHANNELS 3 Zrotation Xrotation Yrotation
          JOINT rForeArm
          {
            OFFSET -28.1742 -1.7115 0.48768
            CHANNELS 3 Zrotation Xrotation Yrotation
            JOINT rHand
            {
              OFFSET -22.5879 0.773209 7.07136
              CHANNELS 3 Zrotation Xrotation Yrotation
              JOINT rThumb1
              {
                OFFSET -1.2192 -0.487915 3.41376
                CHANNELS 3 Zrotation Xrotation Yrotation
                JOINT rThumb2
                {
                  OFFSET -3.37035 -0.52449 3.41376
                  CHANNELS 3 Zrotation Xrotation Yrotation
                  End Site
                  {
                    OFFSET -1.78271 -1.18214 1.43049
                  }
                }
              }
              JOINT rIndex1
              {
                OFFSET -7.75947 0.938293 5.60832
                CHANNELS 3 Zrotation Xrotation Yrotation
                JOINT rIndex2
                {
                  OFFSET -2.54057 -0.884171 1.56538
                  CHANNELS 3 Zrotation Xrotation Yrotation
                  End Site
                  {
                    OFFSET -1.62519 -0.234802 1.16502
                  }
                }
              }
              JOINT rMid1
              {
                OFFSET -8.24714 1.18213 3.41376
                CHANNELS 3 Zrotation Xrotation Yrotation
                JOINT rMid2
                {
                  OFFSET -3.10165 -0.590103 1.0647
                  CHANNELS 3 Zrotation Xrotation Yrotation
                  End Site
                  {
                    OFFSET -2.48547 -0.328903 0.83742
                  }
                }
              }
              JOINT rRing1
              {
                OFFSET -8.82822 0.546677 1.51678
                CHANNELS 3 Zrotation Xrotation Yrotation
                JOINT rRing2
                {
                  OFFSET -2.60934 -0.819778 -0.0198488
                  CHANNELS 3 Zrotation Xrotation Yrotation
                  End Site
                  {
                    OFFSET -2.33842 -0.294052 0.168128
                  }
                }
              }
              JOINT rPinky1
              {
                OFFSET -8.27202 -0.0477905 -0.4584
                CHANNELS 3 Zrotation Xrotation Yrotation
                JOINT rPinky2
                {
                  OFFSET -1.82734 -0.647385 -0.700984
                  CHANNELS 3 Zrotation Xrotation Yrotation
                  End Site
                  {
                    OFFSET -1.69225 -0.51767 -0.607171
                  }
                }
              }
            }
          }
        }
      }
      JOINT lCollar
      {
        OFFSET 2.68224 19.2634 -4.8768
        CHANNELS 3 Zrotation Xrotation Yrotation
        JOINT lShldr
        {
          OFFSET 8.77824 -1.95073 1.46304
          CHANNELS 3 Zrotation Xrotation Yrotation
          JOINT lForeArm
          {
            OFFSET 28.1742 -1.7115 0.48768
            CHANNELS 3 Zrotation Xrotation Yrotation
            JOINT lHand
            {
              OFFSET 22.5879 0.773209 7.07136
              CHANNELS 3 Zrotation Xrotation Yrotation
              JOINT lThumb1
              {
                OFFSET 1.2192 -0.487915 3.41376
                CHANNELS 3 Zrotation Xrotation Yrotation
                JOINT lThumb2
                {
                  OFFSET 3.37035 -0.52449 3.41376
                  CHANNELS 3 Zrotation Xrotation Yrotation
                  End Site
                  {
                    OFFSET 1.78271 -1.18214 1.43049
                  }
                }
              }
              JOINT lIndex1
              {
                OFFSET 7.75947 0.938293 5.60832
                CHANNELS 3 Zrotation Xrotation Yrotation
                JOINT lIndex2
                {
                  OFFSET 2.54057 -0.884171 1.56538
                  CHANNELS 3 Zrotation Xrotation Yrotation
                  End Site
                  {
                    OFFSET 1.62519 -0.234802 1.16502
                  }
                }
              }
              JOINT lMid1
              {
                OFFSET 8.24714 1.18213 3.41376
                CHANNELS 3 Zrotation Xrotation Yrotation
                JOINT lMid2
                {
                  OFFSET 3.10165 -0.590103 1.0647
                  CHANNELS 3 Zrotation Xrotation Yrotation
                  End Site
                  {
                    OFFSET 2.48547 -0.328903 0.83742
                  }
                }
              }
              JOINT lRing1
              {
                OFFSET 8.82822 0.546677 1.51678
                CHANNELS 3 Zrotation Xrotation Yrotation
                JOINT lRing2
                {
                  OFFSET 2.60934 -0.819778 -0.0198488
                  CHANNELS 3 Zrotation Xrotation Yrotation
                  End Site
                  {
                    OFFSET 2.33842 -0.294052 0.168128
                  }
                }
              }
              JOINT lPinky1
              {
                OFFSET 8.27202 -0.0477905 -0.4584
                CHANNELS 3 Zrotation Xrotation Yrotation
                JOINT lPinky2
                {
                  OFFSET 1.82734 -0.647385 -0.700984
                  CHANNELS 3 Zrotation Xrotation Yrotation
                  End Site
                  {
                    OFFSET 1.69225 -0.51767 -0.607171
                  }
                }
              }
            }
          }
        }
      }
    }
  }
  JOINT rButtock
  {
    OFFSET -8.77824 4.35084 1.2192
    CHANNELS 3 Zrotation Xrotation Yrotation
    JOINT rThigh
    {
      OFFSET 0 -1.70687 -2.19456
      CHANNELS 3 Zrotation Xrotation Yrotation
      JOINT rShin
      {
        OFFSET 0 -36.8199 0.73152
        CHANNELS 3 Zrotation Xrotation Yrotation
        JOINT rFoot
        {
          OFFSET 0.73152 -45.1104 -5.12064
          CHANNELS 3 Zrotation Xrotation Yrotation
          End Site
          {
            OFFSET -1.1221 -3.69964 12.103
          }
        }
      }
    }
  }
  JOINT lButtock
  {
    OFFSET 8.77824 4.35084 1.2192
    CHANNELS 3 Zrotation Xrotation Yrotation
    JOINT lThigh
    {
      OFFSET 0 -1.70687 -2.19456
      CHANNELS 3 Zrotation Xrotation Yrotation
      JOINT lShin
      {
        OFFSET 0 -36.8199 0.73152
        CHANNELS 3 Zrotation Xrotation Yrotation
        JOINT lFoot
        {
          OFFSET -0.73152 -45.1104 -5.12064
          CHANNELS 3 Zrotation Xrotation Yrotation
          End Site
          {
            OFFSET 1.1221 -3.69964 12.103
          }
        }
      }
    }
  }
}
MOTION
Frames:	5
Frame Time:	0.00833333
5.8666 64.611 268.844 -1.19746 0.00337712 0.0224833 1.57502 -0.00270808 0.0428958 0.434162 0.00151577 0.0751866 2.27756e-014 0 -1.98785e-016 6.85776e-014 3.18055e-015 -6.24308e-016 -0 0 0 -0 0 0 1.14787e-014 -2.17421e-017 4.96962e-017 2.42167e-013 -2.04997e-016 -9.93923e-016 4.13825e-012 -1.24956e-012 -7.95139e-014 4.73208e-011 1.15668e-012 -4.07111e-013 1.11627e-010 -2.05412e-013 -1.03686e-012 1.92778e-010 -3.59403e-013 -1.80178e-012 1.11633e-010 -2.02363e-013 -1.05276e-012 7.73091 5.47488 0.417314 1.11627e-010 -2.05146e-013 -1.04322e-012 2.90554 0.965183 0.102902 1.11637e-010 -2.05245e-013 -1.03925e-012 10.2786 0.731801 0.0259123 1.11629e-010 -2.06736e-013 -1.03368e-012 2.22167 -0.733487 -0.20892 1.13822e-014 -2.17421e-017 -2.48481e-016 2.38636e-013 -3.10601e-016 -2.38542e-015 4.13472e-012 1.22233e-012 -1.01778e-013 4.73289e-011 -1.31725e-012 -3.59403e-013 1.11642e-010 -2.07444e-013 -1.03686e-012 1.92809e-010 -3.56222e-013 -1.80258e-012 1.11638e-010 -2.08724e-013 -1.03686e-012 -7.73091 5.47488 -0.417314 1.11643e-010 -2.07332e-013 -1.04004e-012 -2.90554 0.965183 -0.102902 1.11635e-010 -2.07332e-013 -1.04004e-012 -10.2786 0.731801 -0.0259123 1.11649e-010 -2.04748e-013 -1.0464e-012 -2.22167 -0.733487 0.20892 -2.03217e-016 0 -3.88251e-019 1.70469 -6.60401 -0.159326 0.00258796 6.39967 0.073372 -0.527858 0.199746 0.0640708 2.03217e-016 0 3.88251e-019 0.692086 -1.9236 0.00558058 0.009177 -2.07857 0.0757414 0.502896 3.99746 -0.138946 
4.50905 62.2196 267.077 -4.23045 4.44919 47.7772 -0.0707735 4.49219 -0.968874 1.51396 -2.13898 -0.225706 -1.31471 0.565579 -0.948258 2.3786 -8.53213 -1.15529 -0 0 0 -0 0 0 5.89447e-015 6.08623e-014 -8.07233e-014 21.088 8.01865 -4.1932 -8.2473 -5.15139 11.0087 0.020351 -3.16611 -0.442519 3.6766e-010 1.11208e-010 3.14496e-011 6.34047e-010 1.90312e-010 5.31105e-011 3.67668e-010 1.11211e-010 3.14375e-011 7.73091 5.47488 0.417314 3.67662e-010 1.11208e-010 3.14459e-011 2.90554 0.965183 0.102902 3.67672e-010 1.11208e-010 3.14499e-011 10.2786 0.731801 0.0259123 3.67659e-010 1.11207e-010 3.14547e-011 2.22167 -0.733487 -0.20892 5.80237e-015 6.08616e-014 -8.0983e-014 -19.9008 10.4402 -4.42227 26.9558 -24.5491 -13.7582 -0.000480253 -0.487505 0.0685055 3.95088e-010 -9.82947e-009 -8.06901e-010 6.81998e-010 -1.69746e-008 -1.39335e-009 3.95083e-010 -9.82947e-009 -8.06897e-010 -7.73091 5.47488 -0.417314 3.95088e-010 -9.82947e-009 -8.06901e-010 -2.90554 0.965183 -0.102902 3.9508e-010 -9.82947e-009 -8.06902e-010 -10.2786 0.731801 -0.0259123 3.95093e-010 -9.82947e-009 -8.06908e-010 -2.22167 -0.733487 0.20892 -2.03217e-016 0 -3.88251e-019 -0.263034 -23.3932 -4.86319 -0.168021 32.7719 0.482637 -0.676221 0.193664 -0.339481 2.03217e-016 0 3.88251e-019 -1.20711 -11.7797 -1.81605 0.0617742 15.5176 -0.126779 0.130054 -4.91655 -1.95102 
4.51998 61.9788 265.518 -10.8425 -1.84392 97.6634 -1.64116 9.23843 -2.03308 2.62341 -4.40437 -0.538564 -2.6853 1.17948 -1.9554 4.5107 -17.5402 -2.47031 -0 0 0 -0 0 0 1.11657e-015 1.33177e-013 -1.71902e-013 44.6866 16.3365 -8.77543 -14.7761 -9.88384 22.8501 -0.0116032 -6.50412 -0.913662 6.47242e-010 2.45928e-010 9.07118e-011 1.1156e-009 4.21004e-010 1.53924e-010 6.47253e-010 2.45931e-010 9.07039e-011 7.73091 5.47488 0.417314 6.47246e-010 2.45928e-010 9.0711e-011 2.90554 0.965183 0.102902 6.47257e-010 2.45928e-010 9.0715e-011 10.2786 0.731801 0.0259123 6.4724e-010 2.45927e-010 9.07189e-011 2.22167 -0.733487 -0.20892 1.02666e-015 1.33175e-013 -1.72123e-013 -39.1014 21.2778 -9.5067 38.4687 -45.0136 -37.9103 0.000279353 -0.99862 0.140346 7.21095e-010 -2.07804e-008 -1.70973e-009 1.24452e-009 -3.58851e-008 -2.95217e-009 7.2109e-010 -2.07805e-008 -1.70972e-009 -7.73091 5.47488 -0.417314 7.21095e-010 -2.07805e-008 -1.70973e-009 -2.90554 0.965183 -0.102902 7.21088e-010 -2.07804e-008 -1.70973e-009 -10.2786 0.731801 -0.0259123 7.21099e-010 -2.07804e-008 -1.70973e-009 -2.22167 -0.733487 0.20892 -2.03217e-016 0 -3.88251e-019 -6.17963 -40.4968 -11.9044 -1.1665 60.6971 1.54843 -0.834482 0.203113 -0.760146 2.03217e-016 0 3.88251e-019 -3.95573 -22.2986 -3.94466 0.277004 34.2267 -0.402417 -0.8897 -14.3058 -3.95918 
4.52891 61.7781 263.779 -7.94563 -15.641 141.02 -2.87502 13.4653 -3.06789 3.60577 -6.41935 -0.832238 -3.88797 1.69488 -2.84588 6.00922 -25.5524 -3.79962 -0 0 0 -0 0 0 -5.27406e-015 1.8263e-013 -2.42269e-013 67.0223 23.5172 -13.6055 -19.041 -13.1688 33.8976 -0.0873873 -9.49605 -1.34395 8.79724e-010 3.34035e-010 9.64226e-011 1.51659e-009 5.71654e-010 1.62935e-010 8.79737e-010 3.34037e-010 9.6418e-011 7.73091 5.47488 0.417314 8.7973e-010 3.34034e-010 9.64243e-011 2.90554 0.965183 0.102902 8.79741e-010 3.34034e-010 9.64282e-011 10.2786 0.731801 0.0259123 8.79721e-010 3.34034e-010 9.64314e-011 2.22167 -0.733487 -0.20892 -5.35737e-015 1.82628e-013 -2.42452e-013 -54.2616 30.5131 -15.1908 31.2362 -50.2176 -71.9806 0.0020575 -1.46251 0.205576 9.61979e-010 -2.9488e-008 -2.41863e-009 1.66038e-009 -5.09232e-008 -4.17644e-009 9.61973e-010 -2.9488e-008 -2.41862e-009 -7.73091 5.47488 -0.417314 9.61978e-010 -2.9488e-008 -2.41862e-009 -2.90554 0.965183 -0.102902 9.61971e-010 -2.9488e-008 -2.41863e-009 -10.2786 0.731801 -0.0259123 9.61982e-010 -2.9488e-008 -2.41863e-009 -2.22167 -0.733487 0.20892 -2.03217e-016 0 -3.88251e-019 -17.767 -54.9615 -23.1989 -13.1643 85.3929 13.4644 -0.973203 0.181474 -1.14658 2.03217e-016 0 3.88251e-019 -7.16053 -31.3566 -6.26201 0.703595 50.707 -0.817746 -2.41897 -22.6403 -6.01971 
4.53789 61.6045 262.001 2.89686 -24.0633 173.327 -3.59496 16.4076 -3.96183 4.31614 -7.80884 -1.07357 -4.71343 1.96595 -3.44353 6.75784 -31.1177 -4.8464 -0 0 0 -0 0 0 -1.56965e-014 1.74931e-013 -2.60607e-013 83.661 28.284 -18.152 -21.3942 -14.8733 42.1825 -0.168668 -11.6249 -1.6568 9.94458e-010 3.05607e-010 -3.17451e-011 1.71618e-009 5.22196e-010 -5.75593e-011 9.94471e-010 3.05609e-010 -3.17483e-011 7.73091 5.47488 0.417314 9.94463e-010 3.05607e-010 -3.17419e-011 2.90554 0.965183 0.102902 9.94476e-010 3.05606e-010 -3.17388e-011 10.2786 0.731801 0.0259123 9.94453e-010 3.05607e-010 -3.17356e-011 2.22167 -0.733487 -0.20892 -1.57622e-014 1.74929e-013 -2.60756e-013 -63.1915 36.4193 -20.6208 26.8048 -44.5189 -92.4823 0.00401225 -1.80832 0.254228 9.90052e-010 -3.2587e-008 -2.64271e-009 1.70959e-009 -5.62802e-008 -4.56433e-009 9.90045e-010 -3.2587e-008 -2.64269e-009 -7.73091 5.47488 -0.417314 9.9005e-010 -3.2587e-008 -2.6427e-009 -2.90554 0.965183 -0.102902 9.90043e-010 -3.2587e-008 -2.6427e-009 -10.2786 0.731801 -0.0259123 9.90054e-010 -3.2587e-008 -2.64271e-009 -2.22167 -0.733487 0.20892 -2.03217e-016 0 -3.88251e-019 -34.3968 -64.2202 -38.8392 -173.924 77.4033 174.074 -1.06404 0.0821539 -1.44746 2.03217e-016 0 3.88251e-019 -9.8465 -36.8898 -8.26159 1.26747 61.6179 -1.34521 -3.944 -28.4334 -7.77991 
